<mxfile host="65bd71144e" scale="3" border="0">
    <diagram id="LzTGRrPrDBO6Tm46XuKC" name="Page-1">
        <mxGraphModel dx="2411" dy="2190" grid="0" gridSize="10" guides="1" tooltips="1" connect="1" arrows="1" fold="1" page="0" pageScale="1" pageWidth="1600" pageHeight="1200" math="0" shadow="0">
            <root>
                <mxCell id="0"/>
                <mxCell id="1" parent="0"/>
                <mxCell id="405" value="message frame&lt;div&gt;88 Bytes&lt;/div&gt;" style="text;html=1;align=center;verticalAlign=middle;whiteSpace=wrap;rounded=0;strokeColor=default;fontSize=14;" parent="1" vertex="1">
                    <mxGeometry x="-903" y="-816.5" width="177" height="45" as="geometry"/>
                </mxCell>
                <mxCell id="410" value="cycle buffer" style="text;html=1;align=center;verticalAlign=middle;whiteSpace=wrap;rounded=0;strokeColor=default;fontSize=14;" parent="1" vertex="1">
                    <mxGeometry x="-608" y="-816.5" width="645" height="45" as="geometry"/>
                </mxCell>
                <mxCell id="411" value="&lt;span style=&quot;color: rgb(0, 0, 0);&quot;&gt;start position&lt;/span&gt;&lt;div&gt;48 Bytes&lt;/div&gt;" style="text;html=1;align=center;verticalAlign=middle;whiteSpace=wrap;rounded=0;strokeColor=default;fontSize=14;" parent="1" vertex="1">
                    <mxGeometry x="-726" y="-816.5" width="118" height="45" as="geometry"/>
                </mxCell>
                <mxCell id="417" value="" style="shape=curlyBracket;whiteSpace=wrap;html=1;rounded=1;flipH=1;labelPosition=right;verticalLabelPosition=middle;align=left;verticalAlign=middle;rotation=90;fontSize=14;" vertex="1" parent="1">
                    <mxGeometry x="-454.5" y="-1213.5" width="40" height="933" as="geometry"/>
                </mxCell>
                <mxCell id="418" value="&lt;span style=&quot;color: rgb(0, 0, 0); font-family: Helvetica; font-style: normal; font-variant-ligatures: normal; font-variant-caps: normal; font-weight: 400; letter-spacing: normal; orphans: 2; text-indent: 0px; text-transform: none; widows: 2; word-spacing: 0px; -webkit-text-stroke-width: 0px; white-space: normal; background-color: rgb(255, 255, 255); text-decoration-thickness: initial; text-decoration-style: initial; text-decoration-color: initial; float: none; display: inline !important;&quot;&gt;4KB&lt;/span&gt;" style="text;whiteSpace=wrap;html=1;align=center;fontSize=14;" vertex="1" parent="1">
                    <mxGeometry x="-477.99763269761036" y="-730.0017790670955" width="94" height="38" as="geometry"/>
                </mxCell>
            </root>
        </mxGraphModel>
    </diagram>
</mxfile>